<?xml version="1.0" standalone="no"?>
<!DOCTYPE svg PUBLIC "-//W3C//DTD SVG 20010904//EN"
 "http://www.w3.org/TR/2001/REC-SVG-20010904/DTD/svg10.dtd">
<svg version="1.0" xmlns="http://www.w3.org/2000/svg"
 width="1421.000000pt" height="1421.000000pt" viewBox="0 0 1421.000000 1421.000000"
 preserveAspectRatio="xMidYMid meet">
<metadata>
Created by potrace 1.11, written by Peter Selinger 2001-2013
</metadata>
<g transform="translate(0.000000,1421.000000) scale(0.100000,-0.100000)"
fill="#000000" stroke="none">
<path d="M6790 13900 c-194 -15 -266 -21 -295 -24 -16 -2 -59 -7 -95 -11 -36
-4 -78 -9 -95 -11 -16 -2 -48 -6 -70 -9 -22 -3 -49 -7 -60 -9 -11 -2 -40 -7
-65 -11 -25 -4 -54 -9 -65 -11 -10 -2 -37 -6 -60 -10 -33 -4 -359 -73 -430
-90 -11 -3 -31 -7 -44 -10 -14 -3 -28 -7 -33 -10 -4 -3 -16 -7 -26 -9 -9 -1
-37 -8 -62 -15 -25 -7 -52 -14 -60 -15 -8 -2 -73 -22 -145 -44 -71 -23 -137
-43 -145 -46 -8 -2 -73 -25 -145 -50 -71 -26 -143 -52 -160 -57 -16 -6 -34
-14 -40 -18 -5 -4 -21 -11 -35 -15 -27 -8 -211 -86 -270 -113 -19 -9 -37 -17
-40 -17 -3 -1 -68 -32 -145 -70 -77 -38 -142 -69 -145 -70 -3 0 -16 -8 -30
-16 -14 -9 -59 -34 -100 -56 -62 -33 -135 -74 -278 -158 -62 -36 -148 -90
-152 -94 -8 -9 -89 -61 -95 -61 -3 0 -15 -8 -26 -18 -10 -11 -31 -25 -46 -33
-15 -8 -35 -21 -44 -29 -9 -8 -32 -25 -50 -38 -54 -37 -214 -155 -219 -162 -3
-3 -21 -17 -40 -30 -37 -26 -58 -43 -94 -75 -12 -11 -37 -31 -55 -45 -18 -14
-39 -31 -47 -39 -8 -7 -34 -29 -57 -48 -152 -127 -627 -596 -627 -619 0 -3
-15 -19 -33 -37 -17 -18 -50 -55 -72 -81 -22 -27 -44 -54 -50 -60 -5 -6 -28
-34 -50 -61 -22 -28 -43 -51 -47 -53 -5 -2 -8 -10 -8 -17 0 -7 -4 -15 -10 -17
-7 -2 -84 -102 -168 -217 -9 -13 -22 -30 -29 -36 -7 -7 -9 -15 -6 -19 3 -3 -2
-8 -11 -12 -9 -3 -16 -12 -16 -19 0 -7 -3 -15 -7 -17 -11 -4 -133 -187 -133
-199 0 -5 -3 -9 -8 -9 -4 0 -16 -17 -27 -37 -11 -21 -26 -44 -32 -51 -7 -7
-13 -19 -13 -27 0 -7 -4 -15 -8 -17 -10 -4 -112 -176 -112 -188 0 -5 -3 -10
-7 -12 -10 -4 -21 -24 -142 -263 -95 -185 -210 -438 -247 -540 -9 -27 -20 -54
-24 -60 -28 -43 -236 -682 -230 -705 1 -3 -4 -18 -10 -35 -7 -16 -14 -38 -16
-47 -2 -10 -6 -27 -9 -38 -3 -11 -7 -28 -9 -37 -16 -63 -87 -396 -90 -424 -3
-19 -7 -46 -10 -59 -3 -14 -8 -43 -11 -65 -3 -22 -10 -68 -15 -101 -6 -34 -12
-85 -15 -113 -3 -28 -7 -64 -9 -79 -3 -15 -8 -56 -11 -92 -4 -36 -8 -81 -10
-100 -27 -273 -27 -970 0 -1185 2 -16 7 -64 11 -105 3 -41 8 -84 10 -95 2 -11
7 -44 10 -74 3 -30 8 -64 10 -75 2 -12 7 -41 10 -66 6 -49 11 -83 18 -116 2
-12 7 -37 10 -55 3 -19 10 -59 16 -89 6 -30 13 -64 15 -75 16 -86 23 -120 25
-120 1 0 3 -12 5 -26 4 -34 90 -362 116 -449 34 -109 139 -424 149 -445 5 -11
23 -56 40 -100 17 -44 34 -89 39 -100 138 -321 315 -681 406 -825 14 -22 25
-44 25 -49 0 -5 4 -11 8 -13 4 -1 21 -25 36 -53 44 -77 170 -270 178 -273 5
-2 8 -8 8 -13 0 -8 72 -114 100 -146 5 -7 10 -17 10 -23 0 -5 3 -10 8 -10 4 0
18 -17 32 -38 23 -35 89 -121 100 -132 3 -3 17 -21 30 -40 14 -19 32 -44 42
-55 9 -11 33 -40 53 -65 42 -51 118 -139 155 -181 14 -15 52 -58 85 -95 226
-252 564 -562 865 -795 58 -44 113 -86 122 -94 9 -7 27 -19 40 -26 13 -6 27
-18 31 -25 4 -8 12 -14 18 -14 5 0 15 -5 22 -10 53 -45 73 -60 80 -60 4 0 17
-9 29 -20 12 -11 34 -26 50 -32 15 -7 28 -16 28 -20 0 -5 5 -8 10 -8 6 0 16
-5 23 -10 12 -11 98 -66 194 -124 26 -17 51 -29 56 -28 4 1 7 -2 7 -8 0 -5 7
-10 15 -10 8 0 15 -4 15 -8 0 -4 12 -13 28 -19 15 -7 72 -37 127 -68 114 -64
434 -221 555 -273 25 -11 61 -26 80 -34 60 -26 303 -120 314 -122 6 -1 16 -4
21 -8 35 -20 562 -180 640 -194 11 -2 38 -8 60 -14 22 -6 51 -13 65 -16 14 -3
33 -7 42 -10 9 -3 27 -7 40 -9 13 -3 46 -9 73 -15 113 -23 226 -44 300 -55 22
-3 54 -7 70 -10 49 -7 107 -15 155 -21 25 -3 58 -7 75 -10 16 -2 57 -6 90 -9
33 -3 78 -8 100 -10 270 -27 977 -27 1170 0 17 2 59 7 95 10 36 3 79 7 95 9
17 2 57 7 90 11 33 4 67 9 76 10 9 2 40 6 70 10 30 4 56 8 59 10 3 2 33 7 65
10 33 4 63 9 66 11 4 2 24 6 45 10 22 3 59 10 84 16 25 5 52 11 60 13 26 4 94
18 105 20 65 15 203 48 215 53 8 3 20 6 25 7 104 23 586 175 650 205 11 5 92
38 180 73 175 70 222 92 395 175 63 30 118 55 122 54 3 -1 12 5 18 13 7 8 17
15 22 15 5 0 40 18 78 39 39 22 70 37 70 33 0 -4 4 -2 8 4 4 6 43 30 87 54 44
24 82 47 83 52 2 4 9 8 15 8 15 0 255 152 411 260 12 8 36 24 54 35 17 11 32
23 32 28 0 4 6 7 14 7 8 0 16 3 18 8 2 4 38 33 82 66 43 32 86 64 95 72 9 7
52 41 96 76 44 35 85 68 91 73 6 6 31 27 54 46 23 18 57 48 75 64 18 17 65 59
105 95 138 123 438 429 539 550 23 27 90 105 106 124 6 6 28 34 50 61 21 28
42 52 45 55 3 3 17 21 30 40 14 19 33 44 43 55 10 11 39 49 65 85 25 36 48 67
52 70 3 3 28 39 55 80 28 41 52 77 55 80 8 8 131 196 175 270 22 36 44 68 50
72 5 4 7 8 3 8 -4 0 15 36 43 80 27 44 46 80 42 80 -5 0 -3 4 2 8 6 4 25 34
43 67 40 73 222 442 222 449 0 2 16 40 36 83 20 43 37 84 37 91 0 6 4 12 9 12
4 0 8 6 8 13 0 7 21 65 46 128 88 219 230 666 259 814 2 11 4 20 5 20 1 0 3 7
5 15 1 8 8 33 13 55 6 22 14 56 17 75 3 19 10 49 14 65 5 17 12 48 16 70 10
58 14 82 19 108 20 98 31 169 42 252 3 22 7 51 10 65 7 46 24 184 29 250 4 36
8 81 10 100 27 221 27 956 1 1165 -2 17 -7 59 -11 95 -7 75 -24 221 -30 265
-21 138 -50 304 -75 425 -17 80 -33 156 -36 170 -3 14 -7 33 -10 42 -3 10 -7
28 -10 40 -2 13 -22 88 -44 168 -42 152 -44 156 -53 180 -4 13 -11 38 -23 85
-18 78 -201 559 -276 725 -115 257 -410 805 -440 818 -5 2 -8 8 -8 13 0 11
-72 123 -82 127 -5 2 -8 8 -8 13 0 12 -211 315 -257 369 -54 63 -73 89 -73 99
0 6 -4 11 -8 11 -4 0 -26 24 -47 53 -22 28 -50 62 -62 74 -13 12 -23 25 -23
28 0 3 -8 13 -17 23 -10 10 -35 38 -57 63 -157 179 -373 401 -530 544 -185
168 -201 182 -246 215 -19 14 -43 35 -54 48 -11 12 -24 22 -29 22 -5 0 -15 6
-21 13 -6 8 -51 45 -101 83 -49 38 -92 71 -95 74 -3 3 -13 10 -22 15 -9 6 -56
38 -103 73 -48 34 -91 62 -96 62 -5 0 -9 5 -9 10 0 6 -7 10 -15 10 -8 0 -15 4
-15 8 0 5 -19 19 -42 32 -24 13 -45 27 -48 30 -4 6 -122 79 -240 150 -56 34
-177 102 -240 134 -41 22 -77 42 -80 45 -3 3 -12 7 -20 9 -8 2 -22 10 -31 18
-8 8 -19 14 -23 14 -4 0 -66 29 -139 63 -73 35 -161 76 -197 92 -36 15 -84 36
-107 46 -24 11 -45 19 -48 19 -3 0 -24 9 -48 19 -23 11 -94 38 -157 61 -63 23
-122 44 -130 47 -8 4 -17 7 -20 8 -3 0 -57 18 -120 39 -169 56 -479 142 -572
160 -13 2 -53 11 -91 20 -37 9 -82 18 -100 21 -17 3 -52 9 -77 14 -25 6 -63
13 -85 17 -22 4 -42 8 -45 9 -8 2 -103 17 -135 21 -16 2 -46 6 -65 9 -50 7
-97 13 -160 20 -30 3 -66 8 -80 10 -14 2 -68 7 -120 11 -52 4 -111 9 -130 11
-64 7 -744 10 -840 3z"/>
</g>
</svg>
